<svg xmlns="http://www.w3.org/2000/svg" xmlns:xlink="http://www.w3.org/1999/xlink" viewBox="0 0 453.7 604.92"><defs><style>.cls-1{isolation:isolate;}.cls-2{fill:url(#linear-gradient);}.cls-3,.cls-9{stroke:#690000;}.cls-10,.cls-14,.cls-3,.cls-9{stroke-miterlimit:10;}.cls-3{fill:url(#New_Gradient_Swatch_red);}.cls-4{fill:url(#linear-gradient-2);}.cls-5{fill:url(#linear-gradient-3);}.cls-6{fill:url(#linear-gradient-4);}.cls-7{fill:url(#New_Gradient_Swatch_red-2);}.cls-8{fill:url(#linear-gradient-5);}.cls-9{fill:url(#linear-gradient-6);}.cls-10,.cls-14{stroke:#570000;}.cls-10{fill:url(#linear-gradient-7);}.cls-11{fill:#c1272d;}.cls-12{fill:#006837;}.cls-13{fill:url(#linear-gradient-8);}.cls-14{fill:url(#linear-gradient-9);}.cls-15{fill:url(#linear-gradient-10);}.cls-16{fill:url(#New_Gradient_Swatch_red-3);}.cls-17{fill:#6e1319;}.cls-18{fill:#004224;}.cls-19{fill:#002b17;}.cls-20{fill:#380a0d;}.cls-21,.cls-22{mix-blend-mode:darken;}.cls-21{fill:url(#linear-gradient-11);}.cls-22{fill:url(#linear-gradient-12);}</style><linearGradient id="linear-gradient" x1="62.78" y1="289.27" x2="477.7" y2="404.71" gradientUnits="userSpaceOnUse"><stop offset="0.1" stop-color="#1a190d"/><stop offset="0.2" stop-color="#34321b"/><stop offset="0.39" stop-color="#636033"/><stop offset="0.57" stop-color="#888347"/><stop offset="0.74" stop-color="#a29d55"/><stop offset="0.88" stop-color="#b2ad5d"/><stop offset="1" stop-color="#b8b260"/></linearGradient><linearGradient id="New_Gradient_Swatch_red" x1="447.03" y1="13.87" x2="10.48" y2="13.87" gradientUnits="userSpaceOnUse"><stop offset="0" stop-color="#1f0607"/><stop offset="1" stop-color="#c1272d"/></linearGradient><linearGradient id="linear-gradient-2" x1="228.59" y1="12.69" x2="225.88" y2="43.25" gradientUnits="userSpaceOnUse"><stop offset="0"/><stop offset="0.32" stop-color="#080804"/><stop offset="0.82" stop-color="#1f1e10"/><stop offset="1" stop-color="#292715"/></linearGradient><linearGradient id="linear-gradient-3" x1="191.3" y1="76.65" x2="508.75" y2="230.69" gradientUnits="userSpaceOnUse"><stop offset="0.06" stop-color="#1c1b0f"/><stop offset="0.24" stop-color="#4d4a28"/><stop offset="0.46" stop-color="#847f45"/><stop offset="0.57" stop-color="#999450"/></linearGradient><linearGradient id="linear-gradient-4" x1="23.5" y1="-13.92" x2="447.92" y2="142.74" gradientUnits="userSpaceOnUse"><stop offset="0.21" stop-color="#212112"/><stop offset="1" stop-color="#f0e87d"/></linearGradient><linearGradient id="New_Gradient_Swatch_red-2" x1="8.44" y1="526.02" x2="453.13" y2="526.02" xlink:href="#New_Gradient_Swatch_red"/><linearGradient id="linear-gradient-5" x1="59.65" y1="404.75" x2="459.35" y2="587.87" gradientUnits="userSpaceOnUse"><stop offset="0.08" stop-color="#12110a"/><stop offset="0.18" stop-color="#2c2a17"/><stop offset="0.34" stop-color="#4f4c29"/><stop offset="0.51" stop-color="#6b6738"/><stop offset="0.67" stop-color="#7f7b42"/><stop offset="0.83" stop-color="#8b8648"/><stop offset="1" stop-color="#8f8a4a"/></linearGradient><linearGradient id="linear-gradient-6" x1="0.5" y1="37.92" x2="453.2" y2="37.92" gradientUnits="userSpaceOnUse"><stop offset="0" stop-color="#78191b"/><stop offset="1" stop-color="#f53238"/></linearGradient><linearGradient id="linear-gradient-7" x1="21.13" y1="359.29" x2="214.13" y2="359.29" gradientUnits="userSpaceOnUse"><stop offset="0"/><stop offset="1" stop-color="#a61111"/></linearGradient><linearGradient id="linear-gradient-8" x1="33.13" y1="384.79" x2="158.13" y2="384.79" gradientUnits="userSpaceOnUse"><stop offset="0" stop-color="#001a0d"/><stop offset="1" stop-color="#003d21"/></linearGradient><linearGradient id="linear-gradient-9" x1="52.13" y1="427.79" x2="126.13" y2="427.79" xlink:href="#linear-gradient-7"/><linearGradient id="linear-gradient-10" x1="67.13" y1="479.79" x2="101.13" y2="479.79" xlink:href="#linear-gradient-8"/><linearGradient id="New_Gradient_Swatch_red-3" x1="137.69" y1="332.79" x2="260.24" y2="332.79" xlink:href="#New_Gradient_Swatch_red"/><linearGradient id="linear-gradient-11" x1="20.62" y1="252.93" x2="401.61" y2="404.97" gradientUnits="userSpaceOnUse"><stop offset="0.24" stop-color="#3d3d3d"/><stop offset="0.29" stop-color="#525252"/><stop offset="0.4" stop-color="#797979"/><stop offset="0.51" stop-color="#9a9a9a"/><stop offset="0.62" stop-color="#b4b4b4"/><stop offset="0.74" stop-color="#c6c6c6"/><stop offset="0.86" stop-color="#d0d0d0"/><stop offset="1" stop-color="#d4d4d4"/></linearGradient><linearGradient id="linear-gradient-12" x1="45.33" y1="-23.66" x2="456.1" y2="165.91" gradientUnits="userSpaceOnUse"><stop offset="0.34" stop-color="#4a4949"/><stop offset="0.35" stop-color="#4f4e4e"/><stop offset="0.39" stop-color="#6f6e6e"/><stop offset="0.44" stop-color="#8a8a8a"/><stop offset="0.49" stop-color="#a1a0a0"/><stop offset="0.56" stop-color="#b2b2b2"/><stop offset="0.63" stop-color="#bebebe"/><stop offset="0.74" stop-color="#c5c5c5"/><stop offset="1" stop-color="#c7c7c7"/></linearGradient></defs><g class="cls-1"><g id="Layer_2" data-name="Layer 2"><g id="Mesob"><path class="cls-2" d="M446.46,447.12c-22.33,73.17-129.81,104.16-235.33,102.17-92.56-1.75-190-40-195.35-113,31-103.33,83.94-219.58,95.35-250,12-32,11.45-53.1,11.45-53.1h0c25.89,8.93,54.24,17.79,133.52,16.1,29-.62,57.34-7.41,79.55-14.27h0s4.44,39.27,14.44,55.27C371.28,224.12,427.17,367.41,446.46,447.12Z"/><path class="cls-3" d="M436.81,27.24C420.55,21,403,17.8,387.13,16.29c-49.14-4.68-101-6-152-5s-185,11-209,14c-2.95.37-5.72.81-8.27,1.34h0c-5-2.82-8.4-6.27-7.08-8.78,25-4.1,76.28-11.52,208.36-16.56C320.62-2.58,427.71,8.51,446.5,19.18,448.13,21.65,446.32,24.46,436.81,27.24Z"/><path class="cls-4" d="M436.81,27.24c-9.21,2.71-25.65,5.38-53.2,7.68l-4.48.37C193.34,50,60,35.17,34.54,31.77c-1.53-.2-2.67-.37-3.41-.48a41.62,41.62,0,0,1-13.27-4.66c2.55-.53,5.32-1,8.27-1.34,24-3,158-13,209-14s102.86.32,152,5C403,17.8,420.55,21,436.81,27.24Z"/><path class="cls-5" d="M433.49,93.84c-9.75,8-46.89,25.52-54.36,26.45-4.06.51-20.51,7.66-43.44,14.73h0c-22.21,6.86-50.51,13.65-79.55,14.27-79.28,1.69-107.63-7.17-133.52-16.1-4.81-1.65-9.53-3.31-14.48-4.9-30.13-9.7-48.89-18.63-65-24a73.16,73.16,0,0,1-19-9.34C84.71,114.68,259.82,131.58,433.49,93.84Z"/><path class="cls-6" d="M435.13,92.29a14.13,14.13,0,0,1-1.64,1.55C259.82,131.58,84.71,114.68,24.13,95-8.6,72,1.91,31.48,1.91,31.48a11.19,11.19,0,0,0,7.22,4.81c13,3,89,26,239,21,154.12-5.14,194.82-15.29,201-19a7.87,7.87,0,0,0,2.7-2.74C455.52,44.81,447.24,78.17,435.13,92.29Z"/><path class="cls-7" d="M453.13,487.29c1,55-97,125-239,117s-194-78-201-100c-4.29-13.48-7-34.25-2-52q.72-2.58,1.47-5.17c-.33,1.93-13,79.62,101.53,115.17,116,36,216,16,284-24,46.67-27.45,53.72-52.59,53.55-65.66A109.29,109.29,0,0,1,453.13,487.29Z"/><path class="cls-8" d="M398.13,538.29c-68,40-168,60-284,24C-.42,526.74,12.27,449.05,12.6,447.12v0q1.55-5.37,3.17-10.79c5.35,73,102.79,111.25,195.35,113,105.52,2,213-29,235.33-102.17,1.39,5.71,2.58,11.09,3.56,16.08.66,3.31,1.21,6.45,1.66,9.4a0,0,0,0,1,0,0C451.85,485.7,444.8,510.84,398.13,538.29Z"/><path class="cls-9" d="M451.83,35.54h0a7.87,7.87,0,0,1-2.7,2.74c-6.18,3.71-46.88,13.86-201,19-150,5-226-18-239-21a11.19,11.19,0,0,1-7.22-4.81c-3.16-5-.95-12,6.22-13.19l2.64-.44c-1.32,2.51,2,6,7.08,8.78h0c3.88,2.17,12.76,3,17.27,3.66.74.11,27.47,3.8,29,4,25.44,3.4,129.21,15.67,315,1l4.48-.37c27.55-2.3,44-5,53.2-7.68,9.51-2.78,11.32-5.59,9.69-8.06a10.44,10.44,0,0,1,1.63,1.11C453.75,25,454.25,31.5,451.83,35.54Z"/><polygon class="cls-10" points="139.13 173.29 185.13 182.29 214.13 545.29 187.13 545.29 158.13 187.29 28.13 472.29 21.13 463.29 139.13 173.29"/><polygon class="cls-11" points="226.13 545.29 268.13 186.29 309.13 176.29 437.13 459.29 432.13 468.29 293.13 192.29 252.13 545.29 226.13 545.29"/><path class="cls-12" d="M283.13,539.29c0-16,26-279,26-279l104,225-7,10-87-187-22,231Z"/><polygon class="cls-11" points="319.13 534.29 331.13 364.29 396.13 503.29 384.13 509.29 338.13 408.29 331.13 534.29 319.13 534.29"/><polygon class="cls-12" points="348.13 526.29 348.13 458.29 376.13 516.29 366.13 518.29 357.13 492.29 357.13 526.29 348.13 526.29"/><polygon class="cls-13" points="33.13 481.29 149.13 230.29 158.13 539.29 140.13 539.29 134.13 287.29 41.13 492.29 33.13 481.29"/><polygon class="cls-14" points="52.13 499.29 126.13 324.29 122.13 531.29 106.13 526.29 113.13 389.29 60.13 504.29 52.13 499.29"/><polygon class="cls-15" points="67.13 511.29 101.13 436.29 95.13 523.29 84.13 520.29 89.13 483.29 76.13 513.29 67.13 511.29"/><polygon class="cls-16" points="226.13 341.29 211.13 266.29 226.13 193.29 242.13 267.29 211.13 408.29 219.13 472.29 232.13 413.29 226.13 341.29"/><polygon class="cls-17" points="103.39 52.96 114.13 97.29 126.41 55.05 103.39 52.96"/><polygon class="cls-18" points="177.52 58 181.13 84.29 189.2 57.87 177.52 58"/><polygon class="cls-11" points="242.13 58 254.13 97.29 273.21 56.37 242.13 58"/><polygon class="cls-12" points="319.13 53.29 324.13 84.29 334.25 53.29 319.13 53.29"/><polygon class="cls-11" points="383.17 49.49 383.13 95.29 397.92 47.97 383.17 49.49"/><polygon class="cls-12" points="427.67 43.87 425.13 79.29 433.49 42.79 427.67 43.87"/><polygon class="cls-19" points="45.31 44.52 51.13 75.29 56.9 46.63 45.31 44.52"/><polygon class="cls-20" points="10.13 36.29 16.13 80.29 17.86 38.48 10.13 36.29"/><path class="cls-21" d="M446.46,447.12c-22.33,73.17-129.81,104.16-235.33,102.17-92.56-1.75-190-40-195.35-113,31-103.33,83.94-219.58,95.35-250,12-32,11.45-53.1,11.45-53.1h0c25.89,8.93,54.24,17.79,133.52,16.1,29-.62,57.34-7.41,79.55-14.27h0s4.44,39.27,14.44,55.27C371.28,224.12,427.17,367.41,446.46,447.12Z"/><path class="cls-22" d="M435.13,92.29a14.13,14.13,0,0,1-1.64,1.55C259.82,131.58,84.71,114.68,24.13,95-8.6,72,1.91,31.48,1.91,31.48a11.19,11.19,0,0,0,7.22,4.81c13,3,89,26,239,21,154.12-5.14,194.82-15.29,201-19a7.87,7.87,0,0,0,2.7-2.74C455.52,44.81,447.24,78.17,435.13,92.29Z"/></g></g></g></svg>