<svg xmlns="http://www.w3.org/2000/svg" xmlns:xlink="http://www.w3.org/1999/xlink" viewBox="0 0 446.19 257.54"><defs><style>.cls-1{isolation:isolate;}.cls-2{fill:url(#linear-gradient);}.cls-3{fill:url(#yellow_Gradient_update);}.cls-4{fill:url(#linear-gradient-2);}.cls-5{fill:#c1272d;}.cls-6{fill:#006837;}.cls-7,.cls-8{mix-blend-mode:darken;}.cls-7{fill:url(#linear-gradient-3);}.cls-8{fill:url(#New_Gradient_Swatch_BW);}.cls-9{stroke:#6e0000;stroke-miterlimit:10;fill:url(#linear-gradient-4);}</style><linearGradient id="linear-gradient" x1="197.36" y1="30.98" x2="315.85" y2="106.22" gradientUnits="userSpaceOnUse"><stop offset="0.17" stop-color="#52522b"/><stop offset="0.17" stop-color="#53532b"/><stop offset="0.28" stop-color="#807e43"/><stop offset="0.38" stop-color="#a7a357"/><stop offset="0.49" stop-color="#c7c168"/><stop offset="0.61" stop-color="#e0d975"/><stop offset="0.73" stop-color="#f1ea7e"/><stop offset="0.85" stop-color="#fcf483"/><stop offset="1" stop-color="#fff785"/></linearGradient><linearGradient id="yellow_Gradient_update" x1="67.23" y1="95.54" x2="405.78" y2="369.24" gradientUnits="userSpaceOnUse"><stop offset="0.22" stop-color="#52522b"/><stop offset="0.38" stop-color="#828044"/><stop offset="0.59" stop-color="#b7b360"/><stop offset="0.77" stop-color="#ded874"/><stop offset="0.91" stop-color="#f6ef80"/><stop offset="1" stop-color="#fff785"/></linearGradient><linearGradient id="linear-gradient-2" x1="101.83" y1="137.38" x2="223.81" y2="238.42" gradientUnits="userSpaceOnUse"><stop offset="0" stop-color="#001c0f"/><stop offset="1" stop-color="#006837"/></linearGradient><linearGradient id="linear-gradient-3" x1="185.73" y1="24.16" x2="267.04" y2="74.62" gradientUnits="userSpaceOnUse"><stop offset="0.25" stop-color="#333"/><stop offset="0.35" stop-color="#434343"/><stop offset="0.53" stop-color="#6d6d6d"/><stop offset="0.78" stop-color="#b0b0b0"/><stop offset="1" stop-color="#f0f0f0"/></linearGradient><linearGradient id="New_Gradient_Swatch_BW" x1="64.61" y1="90.54" x2="399.55" y2="368.64" gradientUnits="userSpaceOnUse"><stop offset="0.24" stop-color="#333"/><stop offset="0.32" stop-color="#4e4e4e"/><stop offset="0.49" stop-color="#878787"/><stop offset="0.65" stop-color="#b4b4b4"/><stop offset="0.8" stop-color="#d5d5d5"/><stop offset="0.92" stop-color="#e9e9e9"/><stop offset="1" stop-color="#f0f0f0"/></linearGradient><linearGradient id="linear-gradient-4" x1="0.5" y1="240.78" x2="445.69" y2="240.78" gradientUnits="userSpaceOnUse"><stop offset="0" stop-color="#571213"/><stop offset="1" stop-color="#e62f36"/></linearGradient></defs><g class="cls-1"><g id="Layer_2" data-name="Layer 2"><g id="Mesob"><g id="Cap"><path class="cls-2" d="M194.14,91.79c2-5.09-17.25-29.33-19.64-47.27-2-15,1-28,8-37,5.66-7.28,63-12,75-1,4.66,4.27,13,17,12,30s-10,32-10,32l-6,21Z"/><path class="cls-3" d="M253.5,89.52s94,43,187,136c1,1,1.89,1.92,2.59,2.71-315.74,26.25-413.54,3.49-435.35-3.7,14.62-12.92,98.54-85.67,185.76-132a1.39,1.39,0,0,0,.64-.73Z"/><path class="cls-4" d="M74.68,236.14C108.43,185.57,152.61,140,202.5,99.52c4.44,48,12.31,95,30.58,141l-18.72.23c-13.92-38.92-23.45-75.63-24.86-108.26-33.78,24.68-66.34,62.29-98.26,104.56Z"/><path class="cls-5" d="M120.79,239c13-32.55,32.48-59.32,56.71-81.75-2.72,29.36,1.57,57.32,6.08,83.27H168.5c-4.37-13-6.53-29.13-7-41.27-12.06,8.92-15.93,23.4-21.89,40.42Z"/><path class="cls-5" d="M323.06,237.08c-13.78-16.61-28.37-28.73-43.56-37.56-7.14-41.92-16.15-80.84-31.34-109.8l-13.64.52,7,17.28L223.89,90.65l-12.39.87c40.18,33.93,74.78,66.88,99,98A118.11,118.11,0,0,1,323.06,237.08Z"/><path class="cls-6" d="M379.11,233.1c-28-46.68-63.05-89.23-103.61-128.58,59.89,35.46,115.63,77.18,168,124l-13.64.79c-25.43-26.23-52.52-47.58-82.36-60.79,20,21.74,34.59,43,42.93,63.78Z"/><path class="cls-5" d="M400.5,231.52c-1.32-11-11.91-25.15-21-34,20.59,7.66,34.76,21.3,44,32.45l-8.1.55c-6.12-6.47-8.83-10.49-13.9-11,3.36,5.6,5.58,9,7,11Z"/><path class="cls-5" d="M30,225c18-16.83,35.13-30.38,50.66-38.41,8.31-14.6,26.5-30.24,46.84-46.09a324.78,324.78,0,0,0-61.18,41.29C54.27,191.12,42.14,207,30,225Z"/><polygon class="cls-6" points="228.5 89.52 221.5 63.52 233.5 24.52 236.5 60.52 228.5 89.52"/><path class="cls-5" d="M211.5,91.52l-9-32,2,31.87-7,.13a155.79,155.79,0,0,1-14.06-32c-2.29-7.27-3-28-3-28l14,34c-5.67-20.25-3.7-38.85,5-56,4,29.26,12.61,56.32,25.92,81.07Z"/><path class="cls-5" d="M234.5,89.52s15-24,17-39,3-39,3-39,13,18,11,33-17,45-17,45Z"/><path class="cls-7" d="M194.14,91.79c2-5.09-17.25-29.33-19.64-47.27-2-15,1-28,8-37,5.66-7.28,63-12,75-1,4.66,4.27,13,17,12,30s-10,32-10,32l-6,21Z"/><path class="cls-8" d="M253.5,89.52s94,43,187,136c1,1,1.89,1.92,2.59,2.71-315.74,26.25-413.54,3.49-435.35-3.7,14.62-12.92,98.54-85.67,185.76-132a1.39,1.39,0,0,0,.64-.73Z"/><path class="cls-9" d="M444.5,238.52c-2,6-226,36-439,4-8.15-1.23-5-16,0-16l2.24-2c21.81,7.19,119.61,29.95,435.35,3.7C446.44,232,446.15,233.56,444.5,238.52Z"/></g></g></g></g></svg>