<svg xmlns="http://www.w3.org/2000/svg" viewBox="0 0 108.15 816.42"><defs><style>.cls-1{fill:#f0e87d;}.cls-1,.cls-2,.cls-3,.cls-4,.cls-5,.cls-6{stroke:#000;stroke-miterlimit:10;stroke-width:2px;}.cls-2{fill:#009245;}.cls-3{fill:#f15a24;}.cls-4{fill:aqua;}.cls-5{fill:#ff0;}.cls-6{fill:red;}</style></defs><g id="Layer_2" data-name="Layer 2"><g id="Draw"><rect class="cls-1" x="1.14" y="1.42" width="106" height="814"/><polygon class="cls-2" points="36.76 155.42 54.14 181.75 36.76 208.09 19.38 181.75 36.76 155.42"/><polygon class="cls-2" points="54.14 181.75 71.52 208.09 54.14 234.42 36.76 208.09 54.14 181.75"/><polygon class="cls-2" points="71.52 102.75 88.89 129.09 71.52 155.42 54.14 129.09 71.52 102.75"/><polygon class="cls-2" points="71.52 155.42 88.89 181.75 71.52 208.09 54.14 181.75 71.52 155.42"/><polygon class="cls-2" points="88.89 129.09 106.27 155.42 88.89 181.75 71.52 155.42 88.89 129.09"/><polygon class="cls-2" points="19.38 129.09 36.76 155.42 19.38 181.75 2 155.42 19.38 129.09"/><polygon class="cls-2" points="36.76 102.75 54.14 129.09 36.76 155.42 19.38 129.09 36.76 102.75"/><polygon class="cls-2" points="54.14 76.42 71.52 102.75 54.14 129.09 36.76 102.75 54.14 76.42"/><polygon points="22.85 155.42 19.38 160.69 15.9 155.42 19.38 150.15 22.85 155.42"/><polygon points="40.23 129.09 36.76 134.35 33.28 129.09 36.76 123.82 40.23 129.09"/><polygon points="57.61 102.75 54.14 108.02 50.66 102.75 54.14 97.49 57.61 102.75"/><polygon points="40.23 181.75 36.76 187.02 33.28 181.75 36.76 176.49 40.23 181.75"/><polygon points="74.99 129.09 71.52 134.35 68.04 129.09 71.52 123.82 74.99 129.09"/><polygon points="57.61 208.09 54.14 213.35 50.66 208.09 54.14 202.82 57.61 208.09"/><polygon points="74.99 181.75 71.52 187.02 68.04 181.75 71.52 176.49 74.99 181.75"/><polygon points="92.37 155.42 88.89 160.69 85.42 155.42 88.89 150.15 92.37 155.42"/><polygon class="cls-3" points="71.72 281.5 89.34 308.19 71.72 334.88 54.11 308.19 71.72 281.5"/><polygon class="cls-4" points="89.34 308.19 106.95 334.88 89.34 361.56 71.72 334.88 89.34 308.19"/><polygon class="cls-4" points="54.11 254.81 71.72 281.5 54.11 308.19 36.5 281.5 54.11 254.81"/><polygon class="cls-3" points="71.72 228.13 89.34 254.81 71.72 281.5 54.11 254.81 71.72 228.13"/><polygon class="cls-4" points="89.34 201.44 106.95 228.13 89.34 254.81 71.72 228.13 89.34 201.44"/><polygon points="57.63 281.5 54.11 286.84 50.59 281.5 54.11 276.17 57.63 281.5"/><polygon points="75.25 254.81 71.72 260.15 68.2 254.81 71.72 249.48 75.25 254.81"/><polygon points="92.86 228.13 89.34 233.47 85.81 228.13 89.34 222.79 92.86 228.13"/><polygon class="cls-3" points="107.14 174.71 107.14 227.73 107.02 227.91 89.41 201.22 107.02 174.53 107.14 174.71"/><polygon points="107.14 196.06 107.14 206.38 107.02 206.56 103.5 201.22 107.02 195.88 107.14 196.06"/><polygon class="cls-3" points="107.14 335.11 107.14 388.13 107.02 388.31 89.41 361.62 107.02 334.93 107.14 335.11"/><polygon points="107.14 356.46 107.14 366.78 107.02 366.96 103.5 361.62 107.02 356.28 107.14 356.46"/><polygon points="75.25 308.19 71.72 313.53 68.2 308.19 71.72 302.85 75.25 308.19"/><polygon points="92.86 334.88 89.34 340.21 85.81 334.88 89.34 329.54 92.86 334.88"/><polygon class="cls-3" points="36.42 281.5 18.81 308.19 36.42 334.88 54.03 308.19 36.42 281.5"/><polygon class="cls-4" points="18.81 308.19 1.2 334.88 18.81 361.56 36.42 334.88 18.81 308.19"/><polygon class="cls-3" points="36.42 228.13 18.81 254.81 36.42 281.5 54.03 254.81 36.42 228.13"/><polygon class="cls-4" points="18.81 201.44 1.2 228.13 18.81 254.81 36.42 228.13 18.81 201.44"/><polygon points="32.9 254.81 36.42 260.15 39.95 254.81 36.42 249.48 32.9 254.81"/><polygon points="15.29 228.13 18.81 233.47 22.33 228.13 18.81 222.79 15.29 228.13"/><polygon class="cls-3" points="18.74 201.22 1.14 227.89 1.14 174.55 18.74 201.22"/><polygon points="4.65 201.22 1.14 206.54 1.14 195.9 4.65 201.22"/><polygon class="cls-3" points="18.74 361.62 1.14 388.29 1.14 334.95 18.74 361.62"/><polygon points="4.65 361.62 1.14 366.94 1.14 356.3 4.65 361.62"/><polygon points="32.9 308.19 36.42 313.53 39.95 308.19 36.42 302.85 32.9 308.19"/><polygon points="15.29 334.88 18.81 340.21 22.33 334.88 18.81 329.54 15.29 334.88"/><polygon class="cls-3" points="71.72 28.5 89.34 55.19 71.72 81.88 54.11 55.19 71.72 28.5"/><polygon class="cls-4" points="89.34 55.19 106.95 81.88 89.34 108.56 71.72 81.88 89.34 55.19"/><polygon class="cls-4" points="54.11 1.81 71.72 28.5 54.11 55.19 36.5 28.5 54.11 1.81"/><polygon points="57.63 28.5 54.11 33.84 50.59 28.5 54.11 23.16 57.63 28.5"/><polygon class="cls-3" points="107.14 82.11 107.14 135.13 107.02 135.31 89.41 108.62 107.02 81.93 107.14 82.11"/><polygon points="107.14 103.46 107.14 113.78 107.02 113.96 103.5 108.62 107.02 103.28 107.14 103.46"/><polygon points="75.25 55.19 71.72 60.53 68.2 55.19 71.72 49.85 75.25 55.19"/><polygon points="92.86 81.88 89.34 87.21 85.81 81.88 89.34 76.54 92.86 81.88"/><polygon class="cls-3" points="36.42 28.5 18.81 55.19 36.42 81.88 54.03 55.19 36.42 28.5"/><polygon class="cls-4" points="18.81 55.19 1.2 81.88 18.81 108.56 36.42 81.88 18.81 55.19"/><polygon class="cls-3" points="18.74 108.62 1.14 135.29 1.14 81.95 18.74 108.62"/><polygon points="4.65 108.62 1.14 113.94 1.14 103.3 4.65 108.62"/><polygon points="32.9 55.19 36.42 60.53 39.95 55.19 36.42 49.85 32.9 55.19"/><polygon points="15.29 81.88 18.81 87.21 22.33 81.88 18.81 76.54 15.29 81.88"/><polygon class="cls-5" points="36.76 408.42 54.14 434.75 36.76 461.09 19.38 434.75 36.76 408.42"/><polygon class="cls-5" points="54.14 434.75 71.52 461.09 54.14 487.42 36.76 461.09 54.14 434.75"/><polygon class="cls-5" points="71.52 355.75 88.89 382.09 71.52 408.42 54.14 382.09 71.52 355.75"/><polygon class="cls-5" points="71.52 408.42 88.89 434.75 71.52 461.09 54.14 434.75 71.52 408.42"/><polygon class="cls-5" points="88.89 382.09 106.27 408.42 88.89 434.75 71.52 408.42 88.89 382.09"/><polygon class="cls-5" points="19.38 382.09 36.76 408.42 19.38 434.75 2 408.42 19.38 382.09"/><polygon class="cls-5" points="36.76 355.75 54.14 382.09 36.76 408.42 19.38 382.09 36.76 355.75"/><polygon class="cls-5" points="54.14 329.42 71.52 355.75 54.14 382.09 36.76 355.75 54.14 329.42"/><polygon points="22.85 408.42 19.38 413.69 15.9 408.42 19.38 403.15 22.85 408.42"/><polygon points="40.23 382.09 36.76 387.35 33.28 382.09 36.76 376.82 40.23 382.09"/><polygon points="57.61 355.75 54.14 361.02 50.66 355.75 54.14 350.49 57.61 355.75"/><polygon points="40.23 434.75 36.76 440.02 33.28 434.75 36.76 429.49 40.23 434.75"/><polygon points="74.99 382.09 71.52 387.35 68.04 382.09 71.52 376.82 74.99 382.09"/><polygon points="57.61 461.09 54.14 466.35 50.66 461.09 54.14 455.82 57.61 461.09"/><polygon points="74.99 434.75 71.52 440.02 68.04 434.75 71.52 429.49 74.99 434.75"/><polygon points="92.37 408.42 88.89 413.69 85.42 408.42 88.89 403.15 92.37 408.42"/><polygon class="cls-3" points="71.72 534.5 89.34 561.19 71.72 587.88 54.11 561.19 71.72 534.5"/><polygon class="cls-4" points="89.34 561.19 106.95 587.88 89.34 614.56 71.72 587.88 89.34 561.19"/><polygon class="cls-4" points="54.11 507.81 71.72 534.5 54.11 561.19 36.5 534.5 54.11 507.81"/><polygon class="cls-3" points="71.72 481.13 89.34 507.81 71.72 534.5 54.11 507.81 71.72 481.13"/><polygon class="cls-4" points="89.34 454.44 106.95 481.13 89.34 507.81 71.72 481.13 89.34 454.44"/><polygon points="57.63 534.5 54.11 539.84 50.59 534.5 54.11 529.16 57.63 534.5"/><polygon points="75.25 507.81 71.72 513.15 68.2 507.81 71.72 502.48 75.25 507.81"/><polygon points="92.86 481.13 89.34 486.47 85.81 481.13 89.34 475.79 92.86 481.13"/><polygon class="cls-3" points="107.14 427.71 107.14 480.73 107.02 480.91 89.41 454.22 107.02 427.53 107.14 427.71"/><polygon points="107.14 449.06 107.14 459.38 107.02 459.56 103.5 454.22 107.02 448.88 107.14 449.06"/><polygon class="cls-3" points="107.14 588.11 107.14 641.13 107.02 641.31 89.41 614.62 107.02 587.93 107.14 588.11"/><polygon points="107.14 609.46 107.14 619.78 107.02 619.96 103.5 614.62 107.02 609.28 107.14 609.46"/><polygon points="75.25 561.19 71.72 566.53 68.2 561.19 71.72 555.85 75.25 561.19"/><polygon points="92.86 587.88 89.34 593.21 85.81 587.88 89.34 582.54 92.86 587.88"/><polygon class="cls-3" points="36.42 534.5 18.81 561.19 36.42 587.88 54.03 561.19 36.42 534.5"/><polygon class="cls-4" points="18.81 561.19 1.2 587.88 18.81 614.56 36.42 587.88 18.81 561.19"/><polygon class="cls-3" points="36.42 481.13 18.81 507.81 36.42 534.5 54.03 507.81 36.42 481.13"/><polygon class="cls-4" points="18.81 454.44 1.2 481.13 18.81 507.81 36.42 481.13 18.81 454.44"/><polygon points="32.9 507.81 36.42 513.15 39.95 507.81 36.42 502.48 32.9 507.81"/><polygon points="15.29 481.13 18.81 486.47 22.33 481.13 18.81 475.79 15.29 481.13"/><polygon class="cls-3" points="18.74 454.22 1.14 480.89 1.14 427.55 18.74 454.22"/><polygon points="4.65 454.22 1.14 459.54 1.14 448.9 4.65 454.22"/><polygon class="cls-3" points="18.74 614.62 1.14 641.29 1.14 587.95 18.74 614.62"/><polygon points="4.65 614.62 1.14 619.94 1.14 609.3 4.65 614.62"/><polygon points="32.9 561.19 36.42 566.53 39.95 561.19 36.42 555.85 32.9 561.19"/><polygon points="15.29 587.88 18.81 593.21 22.33 587.88 18.81 582.54 15.29 587.88"/><polygon class="cls-6" points="36.76 661.42 54.14 687.75 36.76 714.09 19.38 687.75 36.76 661.42"/><polygon class="cls-6" points="54.14 687.75 71.52 714.09 54.14 740.42 36.76 714.09 54.14 687.75"/><polygon class="cls-6" points="71.52 608.75 88.89 635.09 71.52 661.42 54.14 635.09 71.52 608.75"/><polygon class="cls-6" points="71.52 661.42 88.89 687.75 71.52 714.09 54.14 687.75 71.52 661.42"/><polygon class="cls-6" points="88.89 635.09 106.27 661.42 88.89 687.75 71.52 661.42 88.89 635.09"/><polygon class="cls-6" points="19.38 635.09 36.76 661.42 19.38 687.75 2 661.42 19.38 635.09"/><polygon class="cls-6" points="36.76 608.75 54.14 635.09 36.76 661.42 19.38 635.09 36.76 608.75"/><polygon class="cls-6" points="54.14 582.42 71.52 608.75 54.14 635.09 36.76 608.75 54.14 582.42"/><polygon points="22.85 661.42 19.38 666.69 15.9 661.42 19.38 656.15 22.85 661.42"/><polygon points="40.23 635.09 36.76 640.35 33.28 635.09 36.76 629.82 40.23 635.09"/><polygon points="57.61 608.75 54.14 614.02 50.66 608.75 54.14 603.49 57.61 608.75"/><polygon points="40.23 687.75 36.76 693.02 33.28 687.75 36.76 682.49 40.23 687.75"/><polygon points="74.99 635.09 71.52 640.35 68.04 635.09 71.52 629.82 74.99 635.09"/><polygon points="57.61 714.09 54.14 719.35 50.66 714.09 54.14 708.82 57.61 714.09"/><polygon points="74.99 687.75 71.52 693.02 68.04 687.75 71.52 682.49 74.99 687.75"/><polygon points="92.37 661.42 88.89 666.69 85.42 661.42 88.89 656.15 92.37 661.42"/><polygon class="cls-4" points="54.11 760.82 71.72 787.5 54.11 814.19 36.5 787.5 54.11 760.82"/><polygon class="cls-3" points="71.72 734.13 89.34 760.82 71.72 787.5 54.11 760.82 71.72 734.13"/><polygon class="cls-4" points="89.34 707.44 106.95 734.13 89.34 760.82 71.72 734.13 89.34 707.44"/><polygon points="57.63 787.5 54.11 792.84 50.59 787.5 54.11 782.16 57.63 787.5"/><polygon points="75.25 760.82 71.72 766.15 68.2 760.82 71.72 755.48 75.25 760.82"/><polygon points="92.86 734.13 89.34 739.47 85.81 734.13 89.34 728.79 92.86 734.13"/><polygon class="cls-3" points="107.14 680.71 107.14 733.73 107.02 733.91 89.41 707.22 107.02 680.53 107.14 680.71"/><polygon points="107.14 702.06 107.14 712.38 107.02 712.56 103.5 707.22 107.02 701.88 107.14 702.06"/><polygon class="cls-3" points="36.42 734.13 18.81 760.82 36.42 787.5 54.03 760.82 36.42 734.13"/><polygon class="cls-4" points="18.81 707.44 1.2 734.13 18.81 760.82 36.42 734.13 18.81 707.44"/><polygon points="32.9 760.82 36.42 766.15 39.95 760.82 36.42 755.48 32.9 760.82"/><polygon points="15.29 734.13 18.81 739.47 22.33 734.13 18.81 728.79 15.29 734.13"/><polygon class="cls-3" points="18.74 707.22 1.14 733.89 1.14 680.55 18.74 707.22"/><polygon points="4.65 707.22 1.14 712.54 1.14 701.9 4.65 707.22"/></g></g></svg>