<svg xmlns="http://www.w3.org/2000/svg" viewBox="0 0 1249.11 1080.85"><defs><style>.cls-1{fill:#f0e87d;}.cls-1,.cls-2,.cls-3,.cls-4,.cls-5,.cls-6{stroke:#000;stroke-miterlimit:10;stroke-width:2px;}.cls-2{fill:#009245;}.cls-3{fill:#f15a24;}.cls-4{fill:aqua;}.cls-5{fill:#ff0;}.cls-6{fill:red;}</style></defs><g id="Layer_2" data-name="Layer 2"><g id="Tilet"><rect class="cls-1" x="1.11" y="1.39" width="150.22" height="1078.46"/><polygon class="cls-2" points="51.59 182.79 76.22 220.11 51.59 257.43 26.96 220.11 51.59 182.79"/><polygon class="cls-2" points="76.22 220.11 100.85 257.43 76.22 294.74 51.59 257.43 76.22 220.11"/><polygon class="cls-2" points="100.85 108.15 125.48 145.47 100.85 182.79 76.22 145.47 100.85 108.15"/><polygon class="cls-2" points="100.85 182.79 125.48 220.11 100.85 257.43 76.22 220.11 100.85 182.79"/><polygon class="cls-2" points="125.48 145.47 150.11 182.79 125.48 220.11 100.85 182.79 125.48 145.47"/><polygon class="cls-2" points="26.96 145.47 51.59 182.79 26.96 220.11 2.33 182.79 26.96 145.47"/><polygon class="cls-2" points="51.59 108.15 76.22 145.47 51.59 182.79 26.96 145.47 51.59 108.15"/><polygon class="cls-2" points="76.22 70.83 100.85 108.15 76.22 145.47 51.59 108.15 76.22 70.83"/><polygon points="31.89 182.79 26.96 190.25 22.04 182.79 26.96 175.32 31.89 182.79"/><polygon points="56.52 145.47 51.59 152.93 46.66 145.47 51.59 138.01 56.52 145.47"/><polygon points="81.14 108.15 76.22 115.62 71.29 108.15 76.22 100.69 81.14 108.15"/><polygon points="56.52 220.11 51.59 227.57 46.66 220.11 51.59 212.64 56.52 220.11"/><polygon points="105.77 145.47 100.85 152.93 95.92 145.47 100.85 138.01 105.77 145.47"/><polygon points="81.14 257.43 76.22 264.89 71.29 257.43 76.22 249.96 81.14 257.43"/><polygon points="105.77 220.11 100.85 227.57 95.92 220.11 100.85 212.64 105.77 220.11"/><polygon points="130.4 182.79 125.48 190.25 120.55 182.79 125.48 175.32 130.4 182.79"/><polygon class="cls-3" points="101.15 361.47 126.11 399.29 101.15 437.11 76.19 399.29 101.15 361.47"/><polygon class="cls-4" points="126.11 399.29 151.06 437.11 126.11 474.93 101.15 437.11 126.11 399.29"/><polygon class="cls-4" points="76.19 323.65 101.15 361.47 76.19 399.29 51.23 361.47 76.19 323.65"/><polygon class="cls-3" points="101.15 285.83 126.11 323.65 101.15 361.47 76.19 323.65 101.15 285.83"/><polygon class="cls-4" points="126.11 248.01 151.06 285.83 126.11 323.65 101.15 285.83 126.11 248.01"/><polygon points="81.18 361.47 76.19 369.03 71.19 361.47 76.19 353.9 81.18 361.47"/><polygon points="106.14 323.65 101.15 331.21 96.15 323.65 101.15 316.08 106.14 323.65"/><polygon points="131.1 285.83 126.11 293.39 121.11 285.83 126.11 278.26 131.1 285.83"/><polygon class="cls-3" points="151.33 210.13 151.33 285.26 151.16 285.52 126.2 247.69 151.16 209.87 151.33 210.13"/><polygon points="151.33 240.38 151.33 255.01 151.16 255.26 146.17 247.69 151.16 240.13 151.33 240.38"/><polygon class="cls-3" points="151.33 437.44 151.33 512.58 151.16 512.83 126.2 475.01 151.16 437.18 151.33 437.44"/><polygon points="151.33 467.69 151.33 482.32 151.16 482.57 146.17 475.01 151.16 467.44 151.33 467.69"/><polygon points="106.14 399.29 101.15 406.85 96.15 399.29 101.15 391.72 106.14 399.29"/><polygon points="131.1 437.11 126.11 444.67 121.11 437.11 126.11 429.54 131.1 437.11"/><polygon class="cls-3" points="51.12 361.47 26.16 399.29 51.12 437.11 76.08 399.29 51.12 361.47"/><polygon class="cls-4" points="26.16 399.29 1.2 437.11 26.16 474.93 51.12 437.11 26.16 399.29"/><polygon class="cls-3" points="51.12 285.83 26.16 323.65 51.12 361.47 76.08 323.65 51.12 285.83"/><polygon class="cls-4" points="26.16 248.01 1.2 285.83 26.16 323.65 51.12 285.83 26.16 248.01"/><polygon points="46.13 323.65 51.12 331.21 56.11 323.65 51.12 316.08 46.13 323.65"/><polygon points="21.17 285.83 26.16 293.39 31.15 285.83 26.16 278.26 21.17 285.83"/><polygon class="cls-3" points="26.05 247.69 1.11 285.49 1.11 209.9 26.05 247.69"/><polygon points="6.08 247.69 1.11 255.23 1.11 240.16 6.08 247.69"/><polygon class="cls-3" points="26.05 475.01 1.11 512.8 1.11 437.21 26.05 475.01"/><polygon points="6.08 475.01 1.11 482.55 1.11 467.47 6.08 475.01"/><polygon points="46.13 399.29 51.12 406.85 56.11 399.29 51.12 391.72 46.13 399.29"/><polygon points="21.17 437.11 26.16 444.67 31.15 437.11 26.16 429.54 21.17 437.11"/><polygon class="cls-3" points="101.15 2.93 126.11 40.75 101.15 78.57 76.19 40.75 101.15 2.93"/><polygon class="cls-4" points="126.11 40.75 151.06 78.57 126.11 116.39 101.15 78.57 126.11 40.75"/><polygon class="cls-4" points="101.15 2.92 76.19 40.75 51.22 2.92 51.29 2.81 101.08 2.81 101.15 2.92"/><polygon points="81.18 2.92 76.19 10.49 71.19 2.92 71.26 2.81 81.11 2.81 81.18 2.92"/><polygon class="cls-3" points="151.33 78.9 151.33 154.03 151.16 154.29 126.2 116.47 151.16 78.64 151.33 78.9"/><polygon points="151.33 109.15 151.33 123.78 151.16 124.03 146.17 116.47 151.16 108.9 151.33 109.15"/><polygon points="106.14 40.75 101.15 48.31 96.15 40.75 101.15 33.18 106.14 40.75"/><polygon points="131.1 78.57 126.11 86.13 121.11 78.57 126.11 71 131.1 78.57"/><polygon class="cls-3" points="51.12 2.93 26.16 40.75 51.12 78.57 76.08 40.75 51.12 2.93"/><polygon class="cls-4" points="26.16 40.75 1.2 78.57 26.16 116.39 51.12 78.57 26.16 40.75"/><polygon class="cls-3" points="26.05 116.47 1.11 154.26 1.11 78.67 26.05 116.47"/><polygon points="6.08 116.47 1.11 124 1.11 108.93 6.08 116.47"/><polygon points="46.13 40.75 51.12 48.31 56.11 40.75 51.12 33.18 46.13 40.75"/><polygon points="21.17 78.57 26.16 86.13 31.15 78.57 26.16 71 21.17 78.57"/><polygon class="cls-5" points="51.59 541.33 76.22 578.65 51.59 615.97 26.96 578.65 51.59 541.33"/><polygon class="cls-5" points="76.22 578.65 100.85 615.97 76.22 653.28 51.59 615.97 76.22 578.65"/><polygon class="cls-5" points="100.85 466.69 125.48 504.01 100.85 541.33 76.22 504.01 100.85 466.69"/><polygon class="cls-5" points="100.85 541.33 125.48 578.65 100.85 615.97 76.22 578.65 100.85 541.33"/><polygon class="cls-5" points="125.48 504.01 150.11 541.33 125.48 578.65 100.85 541.33 125.48 504.01"/><polygon class="cls-5" points="26.96 504.01 51.59 541.33 26.96 578.65 2.33 541.33 26.96 504.01"/><polygon class="cls-5" points="51.59 466.69 76.22 504.01 51.59 541.33 26.96 504.01 51.59 466.69"/><polygon class="cls-5" points="76.22 429.37 100.85 466.69 76.22 504.01 51.59 466.69 76.22 429.37"/><polygon points="31.89 541.33 26.96 548.79 22.04 541.33 26.96 533.87 31.89 541.33"/><polygon points="56.52 504.01 51.59 511.48 46.66 504.01 51.59 496.55 56.52 504.01"/><polygon points="81.14 466.69 76.22 474.16 71.29 466.69 76.22 459.23 81.14 466.69"/><polygon points="56.52 578.65 51.59 586.11 46.66 578.65 51.59 571.18 56.52 578.65"/><polygon points="105.77 504.01 100.85 511.48 95.92 504.01 100.85 496.55 105.77 504.01"/><polygon points="81.14 615.97 76.22 623.43 71.29 615.97 76.22 608.5 81.14 615.97"/><polygon points="105.77 578.65 100.85 586.11 95.92 578.65 100.85 571.18 105.77 578.65"/><polygon points="130.4 541.33 125.48 548.79 120.55 541.33 125.48 533.87 130.4 541.33"/><polygon class="cls-3" points="101.15 720.01 126.11 757.83 101.15 795.65 76.19 757.83 101.15 720.01"/><polygon class="cls-4" points="126.11 757.83 151.06 795.65 126.11 833.47 101.15 795.65 126.11 757.83"/><polygon class="cls-4" points="76.19 682.19 101.15 720.01 76.19 757.83 51.23 720.01 76.19 682.19"/><polygon class="cls-3" points="101.15 644.37 126.11 682.19 101.15 720.01 76.19 682.19 101.15 644.37"/><polygon class="cls-4" points="126.11 606.55 151.06 644.37 126.11 682.19 101.15 644.37 126.11 606.55"/><polygon points="81.18 720.01 76.19 727.57 71.19 720.01 76.19 712.45 81.18 720.01"/><polygon points="106.14 682.19 101.15 689.75 96.15 682.19 101.15 674.63 106.14 682.19"/><polygon points="131.1 644.37 126.11 651.93 121.11 644.37 126.11 636.81 131.1 644.37"/><polygon class="cls-3" points="151.33 568.67 151.33 643.8 151.16 644.06 126.2 606.24 151.16 568.41 151.33 568.67"/><polygon points="151.33 598.92 151.33 613.55 151.16 613.8 146.17 606.24 151.16 598.67 151.33 598.92"/><polygon class="cls-3" points="151.33 795.98 151.33 871.12 151.16 871.37 126.2 833.55 151.16 795.72 151.33 795.98"/><polygon points="151.33 826.24 151.33 840.86 151.16 841.12 146.17 833.55 151.16 825.98 151.33 826.24"/><polygon points="106.14 757.83 101.15 765.39 96.15 757.83 101.15 750.26 106.14 757.83"/><polygon points="131.1 795.65 126.11 803.21 121.11 795.65 126.11 788.08 131.1 795.65"/><polygon class="cls-3" points="51.12 720.01 26.16 757.83 51.12 795.65 76.08 757.83 51.12 720.01"/><polygon class="cls-4" points="26.16 757.83 1.2 795.65 26.16 833.47 51.12 795.65 26.16 757.83"/><polygon class="cls-3" points="51.12 644.37 26.16 682.19 51.12 720.01 76.08 682.19 51.12 644.37"/><polygon class="cls-4" points="26.16 606.55 1.2 644.37 26.16 682.19 51.12 644.37 26.16 606.55"/><polygon points="46.13 682.19 51.12 689.75 56.11 682.19 51.12 674.63 46.13 682.19"/><polygon points="21.17 644.37 26.16 651.93 31.15 644.37 26.16 636.81 21.17 644.37"/><polygon class="cls-3" points="26.05 606.24 1.11 644.03 1.11 568.44 26.05 606.24"/><polygon points="6.08 606.24 1.11 613.77 1.11 598.7 6.08 606.24"/><polygon class="cls-3" points="26.05 833.55 1.11 871.34 1.11 795.75 26.05 833.55"/><polygon points="6.08 833.55 1.11 841.09 1.11 826.01 6.08 833.55"/><polygon points="46.13 757.83 51.12 765.39 56.11 757.83 51.12 750.26 46.13 757.83"/><polygon points="21.17 795.65 26.16 803.21 31.15 795.65 26.16 788.08 21.17 795.65"/><polygon class="cls-6" points="51.59 899.87 76.22 937.19 51.59 974.51 26.96 937.19 51.59 899.87"/><polygon class="cls-6" points="76.22 937.19 100.85 974.51 76.22 1011.83 51.59 974.51 76.22 937.19"/><polygon class="cls-6" points="100.85 825.23 125.48 862.55 100.85 899.87 76.22 862.55 100.85 825.23"/><polygon class="cls-6" points="100.85 899.87 125.48 937.19 100.85 974.51 76.22 937.19 100.85 899.87"/><polygon class="cls-6" points="125.48 862.55 150.11 899.87 125.48 937.19 100.85 899.87 125.48 862.55"/><polygon class="cls-6" points="26.96 862.55 51.59 899.87 26.96 937.19 2.33 899.87 26.96 862.55"/><polygon class="cls-6" points="51.59 825.23 76.22 862.55 51.59 899.87 26.96 862.55 51.59 825.23"/><polygon class="cls-6" points="76.22 787.91 100.85 825.23 76.22 862.55 51.59 825.23 76.22 787.91"/><polygon points="31.89 899.87 26.96 907.33 22.04 899.87 26.96 892.41 31.89 899.87"/><polygon points="56.52 862.55 51.59 870.02 46.66 862.55 51.59 855.09 56.52 862.55"/><polygon points="81.14 825.23 76.22 832.7 71.29 825.23 76.22 817.77 81.14 825.23"/><polygon points="56.52 937.19 51.59 944.65 46.66 937.19 51.59 929.73 56.52 937.19"/><polygon points="105.77 862.55 100.85 870.02 95.92 862.55 100.85 855.09 105.77 862.55"/><polygon points="81.14 974.51 76.22 981.97 71.29 974.51 76.22 967.04 81.14 974.51"/><polygon points="105.77 937.19 100.85 944.65 95.92 937.19 100.85 929.73 105.77 937.19"/><polygon points="130.4 899.87 125.48 907.33 120.55 899.87 125.48 892.41 130.4 899.87"/><polygon class="cls-4" points="101.08 1078.43 51.29 1078.43 76.19 1040.74 101.08 1078.43"/><polygon class="cls-3" points="126.1 1040.74 101.22 1078.43 101.15 1078.55 101.08 1078.43 76.19 1040.74 101.15 1002.91 126.1 1040.74"/><polygon class="cls-4" points="126.11 965.09 151.06 1002.91 126.11 1040.73 101.15 1002.91 126.11 965.09"/><polygon points="81.11 1078.43 71.26 1078.43 76.19 1070.99 81.11 1078.43"/><polygon points="106.14 1040.73 101.15 1048.29 96.15 1040.73 101.15 1033.17 106.14 1040.73"/><polygon points="131.1 1002.91 126.11 1010.48 121.11 1002.91 126.11 995.35 131.1 1002.91"/><polygon class="cls-3" points="151.33 927.21 151.33 1002.35 151.16 1002.6 126.2 964.78 151.16 926.95 151.33 927.21"/><polygon points="151.33 957.46 151.33 972.09 151.16 972.34 146.17 964.78 151.16 957.21 151.33 957.46"/><polygon class="cls-3" points="51.12 1002.91 26.16 1040.73 51.12 1078.55 76.08 1040.73 51.12 1002.91"/><polygon class="cls-4" points="26.16 965.09 1.2 1002.91 26.16 1040.73 51.12 1002.91 26.16 965.09"/><polygon points="46.13 1040.73 51.12 1048.29 56.11 1040.73 51.12 1033.17 46.13 1040.73"/><polygon points="21.17 1002.91 26.16 1010.48 31.15 1002.91 26.16 995.35 21.17 1002.91"/><polygon class="cls-3" points="26.05 964.78 1.11 1002.57 1.11 926.98 26.05 964.78"/><polygon points="6.08 964.78 1.11 972.32 1.11 957.24 6.08 964.78"/><rect class="cls-1" x="1097.78" y="1" width="150.22" height="1078.46"/><polygon class="cls-2" points="1197.52 898.06 1172.89 860.74 1197.52 823.42 1222.15 860.74 1197.52 898.06"/><polygon class="cls-2" points="1172.89 860.74 1148.26 823.42 1172.89 786.11 1197.52 823.42 1172.89 860.74"/><polygon class="cls-2" points="1148.26 972.7 1123.63 935.38 1148.26 898.06 1172.89 935.38 1148.26 972.7"/><polygon class="cls-2" points="1148.26 898.06 1123.63 860.74 1148.26 823.42 1172.89 860.74 1148.26 898.06"/><polygon class="cls-2" points="1123.63 935.38 1099 898.06 1123.63 860.74 1148.26 898.06 1123.63 935.38"/><polygon class="cls-2" points="1222.15 935.38 1197.52 898.06 1222.15 860.74 1246.78 898.06 1222.15 935.38"/><polygon class="cls-2" points="1197.52 972.7 1172.89 935.38 1197.52 898.06 1222.15 935.38 1197.52 972.7"/><polygon class="cls-2" points="1172.89 1010.02 1148.26 972.7 1172.89 935.38 1197.52 972.7 1172.89 1010.02"/><polygon points="1217.22 898.06 1222.15 890.6 1227.07 898.06 1222.15 905.52 1217.22 898.06"/><polygon points="1192.59 935.38 1197.52 927.91 1202.44 935.38 1197.52 942.84 1192.59 935.38"/><polygon points="1167.96 972.7 1172.89 965.23 1177.82 972.7 1172.89 980.16 1167.96 972.7"/><polygon points="1192.59 860.74 1197.52 853.28 1202.44 860.74 1197.52 868.21 1192.59 860.74"/><polygon points="1143.33 935.38 1148.26 927.91 1153.19 935.38 1148.26 942.84 1143.33 935.38"/><polygon points="1167.96 823.42 1172.89 815.96 1177.82 823.42 1172.89 830.89 1167.96 823.42"/><polygon points="1143.33 860.74 1148.26 853.28 1153.19 860.74 1148.26 868.21 1143.33 860.74"/><polygon points="1118.7 898.06 1123.63 890.6 1128.56 898.06 1123.63 905.52 1118.7 898.06"/><polygon class="cls-3" points="1147.96 719.38 1123 681.56 1147.96 643.74 1172.92 681.56 1147.96 719.38"/><polygon class="cls-4" points="1123 681.56 1098.04 643.74 1123 605.92 1147.96 643.74 1123 681.56"/><polygon class="cls-4" points="1172.92 757.2 1147.96 719.38 1172.92 681.56 1197.88 719.38 1172.92 757.2"/><polygon class="cls-3" points="1147.96 795.02 1123 757.2 1147.96 719.38 1172.92 757.2 1147.96 795.02"/><polygon class="cls-4" points="1123 832.84 1098.04 795.02 1123 757.2 1147.96 795.02 1123 832.84"/><polygon points="1167.93 719.38 1172.92 711.82 1177.91 719.38 1172.92 726.95 1167.93 719.38"/><polygon points="1142.97 757.2 1147.96 749.64 1152.95 757.2 1147.96 764.76 1142.97 757.2"/><polygon points="1118.01 795.02 1123 787.46 1127.99 795.02 1123 802.58 1118.01 795.02"/><polygon class="cls-3" points="1097.78 870.72 1097.78 795.59 1097.95 795.33 1122.91 833.15 1097.95 870.98 1097.78 870.72"/><polygon points="1097.78 840.47 1097.78 825.84 1097.95 825.59 1102.94 833.15 1097.95 840.72 1097.78 840.47"/><polygon class="cls-3" points="1097.78 643.41 1097.78 568.27 1097.95 568.02 1122.91 605.84 1097.95 643.67 1097.78 643.41"/><polygon points="1097.78 613.15 1097.78 598.53 1097.95 598.27 1102.94 605.84 1097.95 613.41 1097.78 613.15"/><polygon points="1142.97 681.56 1147.96 674 1152.95 681.56 1147.96 689.13 1142.97 681.56"/><polygon points="1118.01 643.74 1123 636.18 1127.99 643.74 1123 651.31 1118.01 643.74"/><polygon class="cls-3" points="1197.99 719.38 1222.95 681.56 1197.99 643.74 1173.03 681.56 1197.99 719.38"/><polygon class="cls-4" points="1222.95 681.56 1247.91 643.74 1222.95 605.92 1197.99 643.74 1222.95 681.56"/><polygon class="cls-3" points="1197.99 795.02 1222.95 757.2 1197.99 719.38 1173.03 757.2 1197.99 795.02"/><polygon class="cls-4" points="1222.95 832.84 1247.91 795.02 1222.95 757.2 1197.99 795.02 1222.95 832.84"/><polygon points="1202.98 757.2 1197.99 749.64 1193 757.2 1197.99 764.76 1202.98 757.2"/><polygon points="1227.94 795.02 1222.95 787.46 1217.96 795.02 1222.95 802.58 1227.94 795.02"/><polygon class="cls-3" points="1223.06 833.15 1248 795.36 1248 870.95 1223.06 833.15"/><polygon points="1243.02 833.15 1248 825.62 1248 840.69 1243.02 833.15"/><polygon class="cls-3" points="1223.06 605.84 1248 568.05 1248 643.64 1223.06 605.84"/><polygon points="1243.02 605.84 1248 598.3 1248 613.38 1243.02 605.84"/><polygon points="1202.98 681.56 1197.99 674 1193 681.56 1197.99 689.13 1202.98 681.56"/><polygon points="1227.94 643.74 1222.95 636.18 1217.96 643.74 1222.95 651.31 1227.94 643.74"/><polygon class="cls-3" points="1147.96 1077.92 1123 1040.1 1147.96 1002.28 1172.92 1040.1 1147.96 1077.92"/><polygon class="cls-4" points="1123 1040.1 1098.04 1002.28 1123 964.46 1147.96 1002.28 1123 1040.1"/><polygon class="cls-4" points="1147.96 1077.93 1172.92 1040.1 1197.89 1077.93 1197.82 1078.04 1148.03 1078.04 1147.96 1077.93"/><polygon points="1167.93 1077.93 1172.92 1070.36 1177.92 1077.93 1177.85 1078.04 1168 1078.04 1167.93 1077.93"/><polygon class="cls-3" points="1097.78 1001.95 1097.78 926.82 1097.95 926.56 1122.91 964.38 1097.95 1002.21 1097.78 1001.95"/><polygon points="1097.78 971.7 1097.78 957.07 1097.95 956.82 1102.94 964.38 1097.95 971.95 1097.78 971.7"/><polygon points="1142.97 1040.1 1147.96 1032.54 1152.95 1040.1 1147.96 1047.67 1142.97 1040.1"/><polygon points="1118.01 1002.28 1123 994.72 1127.99 1002.28 1123 1009.85 1118.01 1002.28"/><polygon class="cls-3" points="1197.99 1077.92 1222.95 1040.1 1197.99 1002.28 1173.03 1040.1 1197.99 1077.92"/><polygon class="cls-4" points="1222.95 1040.1 1247.91 1002.28 1222.95 964.46 1197.99 1002.28 1222.95 1040.1"/><polygon class="cls-3" points="1223.06 964.38 1248 926.59 1248 1002.18 1223.06 964.38"/><polygon points="1243.02 964.38 1248 956.84 1248 971.92 1243.02 964.38"/><polygon points="1202.98 1040.1 1197.99 1032.54 1193 1040.1 1197.99 1047.67 1202.98 1040.1"/><polygon points="1227.94 1002.28 1222.95 994.72 1217.96 1002.28 1222.95 1009.85 1227.94 1002.28"/><polygon class="cls-5" points="1197.52 539.52 1172.89 502.2 1197.52 464.88 1222.15 502.2 1197.52 539.52"/><polygon class="cls-5" points="1172.89 502.2 1148.26 464.88 1172.89 427.56 1197.52 464.88 1172.89 502.2"/><polygon class="cls-5" points="1148.26 614.16 1123.63 576.84 1148.26 539.52 1172.89 576.84 1148.26 614.16"/><polygon class="cls-5" points="1148.26 539.52 1123.63 502.2 1148.26 464.88 1172.89 502.2 1148.26 539.52"/><polygon class="cls-5" points="1123.63 576.84 1099 539.52 1123.63 502.2 1148.26 539.52 1123.63 576.84"/><polygon class="cls-5" points="1222.15 576.84 1197.52 539.52 1222.15 502.2 1246.78 539.52 1222.15 576.84"/><polygon class="cls-5" points="1197.52 614.16 1172.89 576.84 1197.52 539.52 1222.15 576.84 1197.52 614.16"/><polygon class="cls-5" points="1172.89 651.48 1148.26 614.16 1172.89 576.84 1197.52 614.16 1172.89 651.48"/><polygon points="1217.22 539.52 1222.15 532.06 1227.07 539.52 1222.15 546.98 1217.22 539.52"/><polygon points="1192.59 576.84 1197.52 569.37 1202.44 576.84 1197.52 584.3 1192.59 576.84"/><polygon points="1167.96 614.16 1172.89 606.69 1177.82 614.16 1172.89 621.62 1167.96 614.16"/><polygon points="1192.59 502.2 1197.52 494.74 1202.44 502.2 1197.52 509.67 1192.59 502.2"/><polygon points="1143.33 576.84 1148.26 569.37 1153.19 576.84 1148.26 584.3 1143.33 576.84"/><polygon points="1167.96 464.88 1172.89 457.42 1177.82 464.88 1172.89 472.35 1167.96 464.88"/><polygon points="1143.33 502.2 1148.26 494.74 1153.19 502.2 1148.26 509.67 1143.33 502.2"/><polygon points="1118.7 539.52 1123.63 532.06 1128.56 539.52 1123.63 546.98 1118.7 539.52"/><polygon class="cls-3" points="1147.96 360.84 1123 323.02 1147.96 285.2 1172.92 323.02 1147.96 360.84"/><polygon class="cls-4" points="1123 323.02 1098.04 285.2 1123 247.38 1147.96 285.2 1123 323.02"/><polygon class="cls-4" points="1172.92 398.66 1147.96 360.84 1172.92 323.02 1197.88 360.84 1172.92 398.66"/><polygon class="cls-3" points="1147.96 436.48 1123 398.66 1147.96 360.84 1172.92 398.66 1147.96 436.48"/><polygon class="cls-4" points="1123 474.3 1098.04 436.48 1123 398.66 1147.96 436.48 1123 474.3"/><polygon points="1167.93 360.84 1172.92 353.28 1177.91 360.84 1172.92 368.4 1167.93 360.84"/><polygon points="1142.97 398.66 1147.96 391.1 1152.95 398.66 1147.96 406.22 1142.97 398.66"/><polygon points="1118.01 436.48 1123 428.92 1127.99 436.48 1123 444.04 1118.01 436.48"/><polygon class="cls-3" points="1097.78 512.18 1097.78 437.05 1097.95 436.79 1122.91 474.61 1097.95 512.44 1097.78 512.18"/><polygon points="1097.78 481.93 1097.78 467.3 1097.95 467.05 1102.94 474.61 1097.95 482.18 1097.78 481.93"/><polygon class="cls-3" points="1097.78 284.87 1097.78 209.73 1097.95 209.48 1122.91 247.3 1097.95 285.13 1097.78 284.87"/><polygon points="1097.78 254.61 1097.78 239.99 1097.95 239.73 1102.94 247.3 1097.95 254.87 1097.78 254.61"/><polygon points="1142.97 323.02 1147.96 315.46 1152.95 323.02 1147.96 330.58 1142.97 323.02"/><polygon points="1118.01 285.2 1123 277.64 1127.99 285.2 1123 292.77 1118.01 285.2"/><polygon class="cls-3" points="1197.99 360.84 1222.95 323.02 1197.99 285.2 1173.03 323.02 1197.99 360.84"/><polygon class="cls-4" points="1222.95 323.02 1247.91 285.2 1222.95 247.38 1197.99 285.2 1222.95 323.02"/><polygon class="cls-3" points="1197.99 436.48 1222.95 398.66 1197.99 360.84 1173.03 398.66 1197.99 436.48"/><polygon class="cls-4" points="1222.95 474.3 1247.91 436.48 1222.95 398.66 1197.99 436.48 1222.95 474.3"/><polygon points="1202.98 398.66 1197.99 391.1 1193 398.66 1197.99 406.22 1202.98 398.66"/><polygon points="1227.94 436.48 1222.95 428.92 1217.96 436.48 1222.95 444.04 1227.94 436.48"/><polygon class="cls-3" points="1223.06 474.61 1248 436.82 1248 512.41 1223.06 474.61"/><polygon points="1243.02 474.61 1248 467.07 1248 482.15 1243.02 474.61"/><polygon class="cls-3" points="1223.06 247.3 1248 209.51 1248 285.1 1223.06 247.3"/><polygon points="1243.02 247.3 1248 239.76 1248 254.84 1243.02 247.3"/><polygon points="1202.98 323.02 1197.99 315.46 1193 323.02 1197.99 330.58 1202.98 323.02"/><polygon points="1227.94 285.2 1222.95 277.64 1217.96 285.2 1222.95 292.77 1227.94 285.2"/><polygon class="cls-6" points="1197.52 180.98 1172.89 143.66 1197.52 106.34 1222.15 143.66 1197.52 180.98"/><polygon class="cls-6" points="1172.89 143.66 1148.26 106.34 1172.89 69.02 1197.52 106.34 1172.89 143.66"/><polygon class="cls-6" points="1148.26 255.62 1123.63 218.3 1148.26 180.98 1172.89 218.3 1148.26 255.62"/><polygon class="cls-6" points="1148.26 180.98 1123.63 143.66 1148.26 106.34 1172.89 143.66 1148.26 180.98"/><polygon class="cls-6" points="1123.63 218.3 1099 180.98 1123.63 143.66 1148.26 180.98 1123.63 218.3"/><polygon class="cls-6" points="1222.15 218.3 1197.52 180.98 1222.15 143.66 1246.78 180.98 1222.15 218.3"/><polygon class="cls-6" points="1197.52 255.62 1172.89 218.3 1197.52 180.98 1222.15 218.3 1197.52 255.62"/><polygon class="cls-6" points="1172.89 292.93 1148.26 255.62 1172.89 218.3 1197.52 255.62 1172.89 292.93"/><polygon points="1217.22 180.98 1222.15 173.51 1227.07 180.98 1222.15 188.44 1217.22 180.98"/><polygon points="1192.59 218.3 1197.52 210.83 1202.44 218.3 1197.52 225.76 1192.59 218.3"/><polygon points="1167.96 255.62 1172.89 248.15 1177.82 255.62 1172.89 263.08 1167.96 255.62"/><polygon points="1192.59 143.66 1197.52 136.2 1202.44 143.66 1197.52 151.12 1192.59 143.66"/><polygon points="1143.33 218.3 1148.26 210.83 1153.19 218.3 1148.26 225.76 1143.33 218.3"/><polygon points="1167.96 106.34 1172.89 98.88 1177.82 106.34 1172.89 113.81 1167.96 106.34"/><polygon points="1143.33 143.66 1148.26 136.2 1153.19 143.66 1148.26 151.12 1143.33 143.66"/><polygon points="1118.7 180.98 1123.63 173.51 1128.56 180.98 1123.63 188.44 1118.7 180.98"/><polygon class="cls-4" points="1148.03 2.42 1197.82 2.42 1172.92 40.11 1148.03 2.42"/><polygon class="cls-3" points="1123.01 40.11 1147.89 2.42 1147.96 2.3 1148.03 2.42 1172.92 40.11 1147.96 77.94 1123.01 40.11"/><polygon class="cls-4" points="1123 115.76 1098.04 77.94 1123 40.12 1147.96 77.94 1123 115.76"/><polygon points="1168 2.42 1177.85 2.42 1172.92 9.86 1168 2.42"/><polygon points="1142.97 40.12 1147.96 32.55 1152.95 40.12 1147.96 47.68 1142.97 40.12"/><polygon points="1118.01 77.94 1123 70.38 1127.99 77.94 1123 85.5 1118.01 77.94"/><polygon class="cls-3" points="1097.78 153.64 1097.78 78.5 1097.95 78.25 1122.91 116.07 1097.95 153.9 1097.78 153.64"/><polygon points="1097.78 123.39 1097.78 108.76 1097.95 108.51 1102.94 116.07 1097.95 123.64 1097.78 123.39"/><polygon class="cls-3" points="1197.99 77.94 1222.95 40.12 1197.99 2.3 1173.03 40.12 1197.99 77.94"/><polygon class="cls-4" points="1222.95 115.76 1247.91 77.94 1222.95 40.12 1197.99 77.94 1222.95 115.76"/><polygon points="1202.98 40.12 1197.99 32.55 1193 40.12 1197.99 47.68 1202.98 40.12"/><polygon points="1227.94 77.94 1222.95 70.38 1217.96 77.94 1222.95 85.5 1227.94 77.94"/><polygon class="cls-3" points="1223.06 116.07 1248 78.28 1248 153.87 1223.06 116.07"/><polygon points="1243.02 116.07 1248 108.53 1248 123.61 1243.02 116.07"/></g></g></svg>